SplineFontDB: 3.0
FontName: DeltaFont
FullName: DERUTQAFONNTO
FamilyName: DeltaFont
Weight: Medium
Copyright: Created by konzaburou with FontForge 2.0 (http://fontforge.sf.net)
UComments: "2011-5-21: Created." 
Version: 001.000
ItalicAngle: 0
UnderlinePosition: -102
UnderlineWidth: 51
Ascent: 819
Descent: 205
LayerCount: 2
Layer: 0 0 "Back"  1
Layer: 1 0 "Fore"  0
NeedsXUIDChange: 1
XUID: [1021 737 2090951869 5998041]
FSType: 0
OS2Version: 0
OS2_WeightWidthSlopeOnly: 0
OS2_UseTypoMetrics: 1
CreationTime: 1305981619
ModificationTime: 1306233189
OS2TypoAscent: 0
OS2TypoAOffset: 1
OS2TypoDescent: 0
OS2TypoDOffset: 1
OS2TypoLinegap: 92
OS2WinAscent: 0
OS2WinAOffset: 1
OS2WinDescent: 0
OS2WinDOffset: 1
HheadAscent: 0
HheadAOffset: 1
HheadDescent: 0
HheadDOffset: 1
OS2Vendor: 'PfEd'
MarkAttachClasses: 1
DEI: 91125
Encoding: ISO8859-1
UnicodeInterp: none
NameList: Adobe Glyph List
DisplaySize: -24
AntiAlias: 1
FitToEm: 1
WinInfo: 0 16 16
BeginPrivate: 2
StdHW 0 
StemSnapH 0 
EndPrivate
BeginChars: 256 223

StartChar: z
Encoding: 122 122 25
Width: 1024
VWidth: 60
Flags: HMWO
HStem: 0 0 40 0 460 0 500 0 680 0 720 0
VStem: 65.2311 40 256.15 40<647 662.782> 766.99 -40 960.49 -40
LayerCount: 2
Fore
SplineSet
27.3896 680.2 m 9xa41c
 27.3896 719 l 25
 138.28 719 l 25
 138.28 680.2 l 17
 109.9 680.2 105.603 664.6 105.603 647 c 9
 105.603 124.5 l 25
 629.603 720 l 25
 807.41 719 l 25xa41c
 807.41 683 l 17
 784.19 683 766.99 677.4 766.99 645.4 c 9
 766.99 76.5996 l 17
 766.99 51 781.61 40.5996 820.312 40.5996 c 9
 820.312 0.200195 l 25
 608.75 0.200195 l 25
 608.75 40.5996 l 17
 640.77 40.5996 655.502 56 642.603 80 c 9
 330.103 648.667 l 17
 318.062 668.667 294.437 675 294.437 647 c 9
 294.437 79.0801 l 25
 330.103 79.0801 l 25
 960.489 762.5 l 25x941c
 960.49 74.4004 l 17
 960.49 51.2002 976.83 40.7998 996.61 40.7998 c 9
 996.61 0.400391 l 25
 866.562 0.400391 l 25
 866.562 40 l 17
 901.82 40 919.603 50.4004 919.603 73.5996 c 9
 919.603 586.5 l 25
 371.603 0 l 25
 213.75 0.599609 l 25
 213.75 39.7998 l 17
 242.99 39.7998 256.15 60.2002 256.15 77.7998 c 9
 256.15 648.6 l 17
 256.15 667.8 238.09 679.8 206.271 679.8 c 9
 206.271 719.2 l 25
 408.37 719.2 l 25
 408.37 679 l 17
 381.603 679 372.103 670 381.103 644 c 9
 694.75 76.5996 l 17
 703.354 63.7998 723.437 65.4004 723.437 84.5996 c 9
 723.437 642.2 l 25
 685.29 642.2 l 25xc41c
 65.2305 -51.5 l 25
 65.2305 646.2 l 17
 65.2305 665.4 59.21 680.2 27.3896 680.2 c 9xa41c
EndSplineSet
EndChar

StartChar: a
Encoding: 97 97 26
Width: 1024
VWidth: 60
Flags: HMW
HStem: 0 0 40 0 460 0 500 0 720 0
VStem: 1157.5 80
LayerCount: 2
Fore
SplineSet
592.221 135.1 m 0x7e80
 592.221 203.1 563.1 246.5 513.18 246.5 c 0
 467.1 246.5 437.062 203.5 437.062 135.5 c 0
 437.062 67.5 469.12 45.0215 515.979 44.9004 c 24
 562.04 44.7812 592.221 73.5 592.221 135.1 c 0x7e80
343.38 537.3 m 1
 394.26 537.3 418.7 518.41 418.7 480.9 c 1
 418.7 452.1 401.34 422.7 360.062 421.9 c 1
 318.779 425.1 297.54 452.9 297.54 501.7 c 1
 297.54 624.1 375.1 720.9 522.38 720.9 c 0
 646.221 720.9 724.54 652.9 726.46 523.3 c 1x7e40
 726.46 466.41 709.6 442.41 667.82 400.41 c 0
 513.18 277.7 l 1
 607.6 277.7 668.7 242.1 668.7 134.1 c 0x7e80
 668.7 37.2998 601.66 0.0996094 517.18 0.0996094 c 0
 433.66 0.0996094 360.5 41.9004 360.5 136.3 c 0
 360.5 183.562 363.6 218.41 403.6 260.41 c 0
 610.112 436.41 l 0
 631.599 460.492 647.5 474.41 647.5 523.3 c 0x7e40
 647.5 596.41 609.6 678.7 519.5 678.7 c 1
 402.38 678.7 343.38 602.1 343.38 537.3 c 1
EndSplineSet
EndChar

StartChar: b
Encoding: 98 98 27
Width: 1024
VWidth: 119
Flags: HMW
HStem: 0 0 40 0 460 0 500 0 720 0
VStem: 228 80
LayerCount: 2
Fore
SplineSet
323.4 71 m 13
 549.4 564.4 l 21
 548.604 564.4 778.567 96.5664 791.235 69.2275 c 5
 800.567 48.5664 800.8 40.002 769.6 40.002 c 5
 769.6 0.00390625 l 5
 881.2 0.00390625 l 5
 881.2 0.00390625 881.199 38.7021 881.199 39.502 c 5
 865.999 39.502 852.733 45.2334 840 70 c 5
 521.68 721 l 5
 228 74.2002 l 5
 215.2 49 181.2 40.002 142.8 40.002 c 13
 142.866 0.166992 l 29
 346.188 0.166992 l 21
 346.188 26.3301 346.188 -0.333008 346.188 39.667 c 5
 327.543 41.207 314.4 46 323.4 71 c 13
EndSplineSet
Refer: 76 64 S 1 0 0 1 40.5003 -290 2
Validated: 37
EndChar

StartChar: c
Encoding: 99 99 28
Width: 1024
VWidth: 118
Flags: HMW
HStem: 0.0019989 21G<209.641 233.864 763.342 787.087> 419.581 40<201.9 808.4> 500 0 697.5 20G<502.359 518.913>
VStem: 349.333 -80
LayerCount: 2
Fore
SplineSet
201.9 460.248 m 25
 730.6 84.9141 l 25
 535.6 576.914 l 25
 335.6 122.914 l 25
 819.6 460.747 l 25
 201.9 460.248 l 25
67 500.248 m 25
 957 500.748 l 25
 167.333 -43.0859 l 25
 511 758.166 l 25
 827.333 -43.4238 l 25
 67 500.248 l 25
EndSplineSet
Validated: 5
EndChar

StartChar: d
Encoding: 100 100 29
Width: 1024
VWidth: 120
Flags: HMW
HStem: 0 0 40 0 460 0 500 0 720 0
VStem: 192.216 80 513.166 0 752.216 80
LayerCount: 2
Fore
SplineSet
275.815 271.855 m 24
 275.596 141.933 383.805 40.3945 513.716 38.6553 c 24
 642.515 36.9307 753.598 136.646 753.816 265.455 c 24
 754.043 399.076 648.125 508.866 514.516 510.655 c 24
 382.847 512.418 276.039 403.536 275.815 271.855 c 24
193.815 270.255 m 24
 194.057 436.342 348.433 551.701 514.516 550.455 c 24
 681.428 549.203 834.059 432.372 833.815 265.455 c 24
 833.58 103.487 675.68 -0.359375 513.716 0.855469 c 24
 350.612 2.0791 193.578 107.147 193.815 270.255 c 24
EndSplineSet
Refer: 76 64 N 1 0 0 1 -241.784 272 2
Refer: 76 64 N 1 0 0 1 241.216 274 2
Validated: 33
EndChar

StartChar: e
Encoding: 101 101 30
Width: 1024
VWidth: 120
Flags: HMW
HStem: 0 0 40 0 460 0 500 0 720 0
LayerCount: 2
Fore
SplineSet
58.7998 680.5 m 5
 58.7998 720.701 l 5
 184.8 720.701 l 5
 184.8 678.9 l 5
 157.8 678.9 145.8 666.5 145.8 650.9 c 5
 145.8 350.6 l 5
 929.2 762.2 l 5
 929.481 623.7 924.99 485.2 929.2 346.7 c 5
 931.2 331.5 937.2 321.7 965.2 320.1 c 5
 965.2 280 l 5
 851.2 280 l 5
 860.2 256.8 865.2 220.3 865.2 193.1 c 4
 866.2 79.5 773.2 0.299805 648.2 0.299805 c 4
 564.2 0.299805 533.2 6.90039 498.2 21.2998 c 4
 481.2 28.5 466.2 37.2998 466.2 -0.299805 c 5
 423.2 -0.299805 l 5
 423.2 164.7 l 5
 469.2 164.7 l 5
 469.2 82.2998 524.2 39.5 648.2 39.5 c 5
 730.2 37.9004 769.2 104.3 769.2 193.1 c 4
 769.2 312.2 704.8 362.7 644.2 362.7 c 4
 532.8 362.7 490.2 328.2 490.2 305.1 c 5
 508.8 305.1 520.2 286.2 520.2 258.199 c 4
 520.2 228.2 498.8 208.2 471.2 208.2 c 4
 442.8 208.2 420.2 226.2 420.2 256.2 c 4
 420.2 324.2 522.2 409.9 644.2 409.9 c 4
 740.2 409.9 805.2 366.5 841.2 298.5 c 5
 841.2 323.3 l 5
 858.2 320.9 871.2 324.3 875.2 349.9 c 5
 875.2 637.4 l 5
 97.7998 224.201 l 5
 97.7998 652.5 l 6
 97.7998 672.5 90.7998 680.5 58.7998 680.5 c 5
EndSplineSet
Validated: 33
EndChar

StartChar: f
Encoding: 102 102 31
Width: 1024
VWidth: 121
Flags: HMW
HStem: 0 0 40 0 460 0 500 0 720 0
VStem: 305.45 80 721.45 -80
LayerCount: 2
Fore
SplineSet
795.55 263.743 m 1
 795.45 218.943 l 1
 780.45 222.144 757.55 219.543 727.55 191.543 c 1
 515.45 0.908203 l 1
 305.45 198.943 l 1
 279.55 219.543 259.55 220.543 228.45 220.543 c 1
 228.45 260.543 l 1
 263.55 260.543 272.55 261.543 314.55 292.442 c 1
 456.45 399.309 l 1
 376.45 416.108 305.45 472.489 305.45 557.309 c 0
 305.45 660.489 392.55 720.108 510.45 720.108 c 1
 630.55 720.108 721.45 654.489 721.45 557.309 c 1
 721.45 466.489 652.45 418.509 570.45 400.108 c 1
 715.55 282.942 l 1
 733.95 264.543 771.55 263.743 795.55 263.743 c 1
380.45 185.709 m 1
 480.55 84.543 l 1
 645.45 235.908 l 1
 659.45 249.509 657.45 263.108 645.45 276.709 c 1
 549.45 359.309 l 1
 380.45 226.509 l 1
 368.45 212.908 366.45 199.309 380.45 185.709 c 1
513.45 680 m 0
 440.55 680 383.45 621.14 383.45 557.108 c 0
 383.45 491.543 442.55 432.908 515.45 432.908 c 0
 584.55 432.908 643.45 495.543 643.45 556.709 c 0
 643.45 629.543 588.55 680 513.45 680 c 0
EndSplineSet
EndChar

StartChar: g
Encoding: 103 103 32
Width: 1024
VWidth: 118
Flags: HMW
HStem: -0.700199 21G<749.996 779> 433.7 94<931 973> 460.1 41.2002<215.213 677 779 928.775> 572.5 147.2<351 453> 680.5 39.4004<643 675.742 779.966 815>
VStem: 673.6 80
LayerCount: 2
Fore
SplineSet
755.6 460.1 m 1xa0
 755.6 -0.699219 l 1
 51 501.3 l 1
 674 501.3 l 1
 674 651.1 l 2
 674 666.3 667.5 680.5 640 680.5 c 1
 640 719.9 l 1
 791.6 719.9 l 1
 791.6 682.301 l 1
 764.1 682.301 755.6 669.5 755.6 651.1 c 1
 755.6 501.301 l 1
 908 501.3 l 2
 924 501.3 929 506.9 929 527.7 c 1
 973 527.7 l 1
 973 433.7 l 1
 931 433.7 l 1xc8
 931 456.1 925.002 460.1 905 460.1 c 2
 755.6 460.1 l 1xa0
674 460.1 m 1xa0
 239.6 460.1 l 2
 205.6 460.1 213 439.7 223 430.9 c 1
 674 111.5 l 1
 674 460.1 l 1xa0
EndSplineSet
Refer: 76 64 N 1 0 0 1 -125 272 2
Validated: 33
EndChar

StartChar: h
Encoding: 104 104 33
Width: 1024
VWidth: 119
Flags: HMW
HStem: -2.4004 21G<490.374 518.538> -0.400398 40.8008<143.5 248.406 319.895 338.5> 461.4 37.5996<229.769 558.5 637.5 773.64> 680.6 40.8008<365.5 698.242>
VStem: 179.5 47<416.6 460.122 500.276 547.8>
LayerCount: 2
Fore
SplineSet
446.595 721.402 m 2x38
 794.5 721.4 l 1
 637.5 499 l 1
 880.5 499 l 1
 503.5 -2.40039 l 1
 393.5 165.2 l 1
 325.5 78 l 1
 315.5 58.7998 316.5 41.2002 338.5 39.5996 c 1
 338.5 -0.400391 l 1
 143.5 -0.400391 l 1
 143.5 40.4004 l 1
 196.5 40.4004 244.5 47 273.5 81.2002 c 1
 558.5 461.4 l 1
 259.5 461.4 l 2
 233.5 460.6 226.5 447.8 226.5 416.6 c 1
 179.5 416.6 l 1
 179.5 547.8 l 1
 228.5 547.8 l 1
 228.5 516.6 225.5 500.6 259.5 499 c 1
 585.5 499 l 1
 685.5 634 l 1
 712.1 669 695.1 681 663.5 681 c 1
 446.6 680.707 l 2
 410.591 680.658 380.6 649.9 361.6 603.5 c 1
 323.6 617.9 l 1
 371.6 761.9 l 1
 410.6 755.5 l 1
 410.6 735.5 421.595 721.402 446.595 721.402 c 2x38
446.6 680.709 m 1
446.6 721.4 m 1
609.5 461.4 m 1
 453.5 248.4 l 1
 536.5 119.6 l 1
 764.5 418.2 l 1
 782.1 445 775.5 461.4 739.5 461.4 c 1
 609.5 461.4 l 1
EndSplineSet
Validated: 33
EndChar

StartChar: i
Encoding: 105 105 34
Width: 1024
VWidth: 119
Flags: HMW
HStem: -2 147.2<459.5 561.5> 460 39.7998<277.5 325.268 435.798 639.889 694.858 746.5> 572.6 147.2<459.5 561.5>
VStem: 438.5 144<18.268 124.932 592.868 699.532>
LayerCount: 2
Fore
SplineSet
534.5 300.9 m 25
 637.1 434 l 17
 654.1 455.5 636.6 460 608.5 460 c 9
 464.5 460 l 17
 439 460 421 457.5 436.5 436.8 c 9
 534.5 300.9 l 25
277.5 459.4 m 9
 277.5 499.8 l 25
 746.5 499.8 l 25
 746.5 460 l 17
 716.5 460 707 455 680.5 424.6 c 1
 510.5 196.9 l 1
 338.5 424.6 l 1
 317 454.5 303 459.4 277.5 459.4 c 9
EndSplineSet
Refer: 76 64 N 1 0 0 1 0 271 2
Refer: 76 64 N 1 0 0 1 0 -290 2
Validated: 33
EndChar

StartChar: j
Encoding: 106 106 35
Width: 1024
VWidth: 118
Flags: HMW
HStem: 0 0 40 0 460 0 500 0 720 0
VStem: 512 -40 512 40
LayerCount: 2
Fore
SplineSet
890.5 678.7 m 25xf8
 890.5 720.5 l 25
 753.5 720.5 l 25
 753.5 678.7 l 17
 781 678.7 762.5 659.5 746.5 644.3 c 1
 594.5 477.1 612.5 204.3 757.5 68.2998 c 1
 776.5 49.0996 774.5 39.9004 749.5 39.9004 c 9
 749.5 -0.0996094 l 25
 895.5 -0.0996094 l 25
 895.5 39.7002 l 25
 854.5 39.7002 l 17
 689.5 182.1 686.5 502.7 853.5 678.7 c 9
 890.5 678.7 l 25xf8
435.5 213.9 m 9
 435.5 254.7 l 25
 587.5 254.7 l 25
 587.5 213.9 l 17
 560.5 213.9 554.5 202.7 554.5 182.7 c 9
 554.5 76.2998 l 17
 555.5 45.0996 568.5 39.9004 585.5 39.0996 c 9
 585.5 0.0996094 l 25
 433.5 0.0996094 l 25
 433.5 39.5 l 17
 460.5 40.2998 473.5 48.2998 472.5 73.0996 c 9
 472.5 181.1 l 17
 472.5 203.5 460.5 213.9 435.5 213.9 c 9
435.5 680.3 m 9
 435.5 720.1 l 25
 586.5 720.1 l 25
 586.5 680.3 l 17
 560.6 680.3 553.5 667.5 553.5 649.1 c 9
 554.5 534.7 l 17
 555.5 503.5 569.5 501.3 586.5 500.5 c 9
 586.5 459.5 l 25
 435.5 459.5 l 25
 435.5 498.9 l 17
 462.5 499.7 472.5 506.7 471.5 531.5 c 9
 470.5 647.5 l 17
 470.5 668.5 464.6 680.3 435.5 680.3 c 9
130.5 680.3 m 25
 130.5 720.1 l 25
 268.5 720.1 l 25
 268.5 680.5 l 17
 244.5 678.9 260 664.5 274.5 645.9 c 1
 426.5 478.7 411.5 205.9 266.5 69.9004 c 1
 247.5 50.7002 249.5 39.5 274.5 39.5 c 9
 274.5 -0.5 l 25
 128.5 -0.5 l 25
 128.5 40.2998 l 25
 169.5 40.2998 l 17
 334.5 182.7 335.5 504.3 168.5 680.3 c 9
 130.5 680.3 l 25
EndSplineSet
Refer: 76 64 N 1 0 0 1 -1 -13 2
Validated: 41
EndChar

StartChar: k
Encoding: 107 107 36
Width: 1024
VWidth: 98
Flags: HMW
HStem: 0 0 40 0 460 0 500 0 720 0
LayerCount: 2
Fore
SplineSet
253 0.100586 m 25
 253 40.3008 l 17
 291.5 40.3008 314.25 45.0322 334.5 87.5078 c 9
 531.6 499 l 25
 697.6 90.5078 l 17
 715.6 60.5083 721 42.1006 771 39.7002 c 9
 771 0.100586 l 25
 637.6 0.100586 l 25
 637.6 40.3008 l 17
 661.6 40.3008 660.1 59.5083 647.6 88.5078 c 9
 543.6 328.508 l 25
 432.5 83.5078 l 17
 419 51.0083 423.969 40.2344 450 40.3008 c 9
 450 -0.299805 l 25
 253 0.100586 l 25
EndSplineSet
Refer: 76 64 N 1 0 0 1 16 272 2
Validated: 33
EndChar

StartChar: l
Encoding: 108 108 37
Width: 1024
VWidth: 120
Flags: HMW
HStem: 0 0 40 0 460 0 500 0 720 0
VStem: 248 80 512 40 512 -40 780 -80
LayerCount: 2
Fore
SplineSet
196.8 679.6 m 1xfc80
 196.8 720.4 l 1
 828.8 720.4 l 1
 828.8 681.2 l 1
 801.6 681.2 780 678 780 648.4 c 2
 780 499.6 l 1
 831.2 499.6 l 1
 831.2 460.2 l 1
 780 460.2 l 1
 780 323.4 l 2
 780 289 790.399 282.6 828.8 282.6 c 1
 828.8 241.8 l 1
 192.8 241.8 l 1
 192.8 285.8 l 1
 236 285.8 248 293.8 248 321.8 c 2
 248 460.2 l 1
 194.399 460.2 l 1
 194.399 499.6 l 1
 248 499.6 l 1
 248 638.8 l 2
 248 665.2 246.399 679.6 196.8 679.6 c 1xfc80
552.6 460.2 m 1
 552.6 320.2 l 2
 552.6 289 589.6 281 624 281 c 0
 654.399 281 698.6 284.2 698.6 320.2 c 2
 698.6 460.2 l 1
 552.6 460.2 l 1
327.6 460.2 m 1
 327.6 320.2 l 2
 327.6 289 373 281 407.399 281 c 0
 437.8 281 470.6 284.2 470.6 320.2 c 2
 470.6 460.2 l 1
 327.6 460.2 l 1
552.6 499.6 m 1
 698.6 499.6 l 1
 698.6 650 l 2
 698.6 678 654.399 682.8 624 682.8 c 0
 587.2 682.8 552.6 678 552.6 646.8 c 2
 552.6 499.6 l 1
327.6 499.6 m 1
 470.6 499.6 l 1
 470.6 650 l 2
 470.6 678 436.8 682.8 406.399 682.8 c 0
 369.6 682.8 327.6 678 327.6 646.8 c 2
 327.6 499.6 l 1
EndSplineSet
Refer: 76 64 N 1 0 0 1 -3.8147e-05 -289 2
Validated: 1
EndChar

StartChar: m
Encoding: 109 109 38
Width: 1024
VWidth: 120
Flags: HMW
HStem: 0 40<302.613 488.221 534.512 764.912> 350 0 680 40<295.408 489.324 534.286 772.878>
VStem: 40 80<248.183 487.454> 280 80
LayerCount: 2
Fore
SplineSet
975.5 390.4 m 17
 962.934 390.4 945.601 390.244 932.5 390.244 c 1
 932.5 555.845 859.5 680.2 653.5 680.2 c 0
 479.6 680.2 361.6 514 361.6 351 c 1
 361.6 184 451.6 41.7998 640.5 41.7998 c 1
 825.6 41.7998 899.5 128.24 899.5 184.6 c 1
 886.5 184.6 857.5 195.4 857.5 248.2 c 0
 857.5 282.24 888.601 307.24 924.6 307.24 c 0
 956.601 307.24 984.5 286.24 984.5 244.24 c 0
 984.5 142.24 835.6 0 642.5 0.400391 c 0
 454.5 0.790206 281.5 94.24 281.5 351.8 c 0
 281.5 614.24 477.6 721 653.5 721 c 0
 818.5 721 884.5 624.2 899.5 617.8 c 1
 915.5 601.8 932.5 591.4 930.5 629 c 9
 976.5 629 l 25
 975.5 390.4 l 17
121.6 349.4 m 0
 121.6 181 219.6 41.7998 389.5 41.7998 c 0
 557.6 41.7998 637.6 193 637.6 351.4 c 0
 637.6 511 563.6 680.2 386.5 680.2 c 0
 213.6 680.2 121.6 513 121.6 349.4 c 0
39.5 349.2 m 0
 39.5 604.24 227.6 722.6 388.5 722.6 c 0
 561.6 722.6 719.6 542 719.6 351.6 c 0
 719.6 152 559.6 0.821062 389.5 0.400391 c 0
 227.6 0 39.5 102.24 39.5 349.2 c 0
EndSplineSet
Refer: 76 64 N 1 0 0 1 -8 0 2
EndChar

StartChar: n
Encoding: 110 110 39
Width: 1024
VWidth: 119
Flags: HMW
HStem: 0 0 40 0 460 0 500 0 720 0
VStem: 469.7 80
LayerCount: 2
Fore
SplineSet
550.3 460.2 m 1
 550.3 67 l 2
 550.3 41.5 566.3 39.7998 592.3 39.7998 c 1
 592.3 0 l 1
 426.7 0 l 1
 426.7 40.5996 l 1
 449.2 40.5996 469.7 40.5 469.7 67.5996 c 2
 469.7 455.4 l 1
 469.7 460.2 l 1
 136.7 460.2 l 1
 136.7 499.8 l 1
 469.7 499.8 l 1
 469.7 647.2 l 1
 468.7 668 453.7 675.2 434.7 676.8 c 1
 139.7 675.2 l 1
 139.7 720 l 1
 887.3 720 l 1
 887.3 676.8 l 1
 579.3 676.8 l 2
 559.3 676.8 550.3 669.601 550.3 651.2 c 2
 550.3 499.8 l 1
 884.3 499.8 l 1
 884.3 460.2 l 1
 550.3 460.2 l 1
EndSplineSet
Validated: 33
EndChar

StartChar: o
Encoding: 111 111 40
Width: 1024
VWidth: 118
Flags: HMW
HStem: 0.299801 39.2002<337.5 536.924> 343.7 39.2<133.5 172.208 271.46 405.75 506.306 548.5> 678.9 40.7998<135.5 173.182 271.578 406.962 507.69 551.5 729.6 769.04 857.193 895.5>
VStem: 173.5 80 410.5 80 769.5 80<264.527 677.251>
LayerCount: 2
Fore
SplineSet
729.6 678.9 m 9
 726.5 719.7 l 25
 890.5 719.7 l 25
 890.5 683.7 l 17
 869.5 683.7 852.5 675.7 851.5 652.5 c 1
 851.5 422.1 l 1
 851.5 78.0996 676.5 0.299805 337.5 0.299805 c 9
 337.5 39.5 l 17
 486.5 39.5 769.5 32.9004 769.5 420.9 c 1
 769.6 650.9 l 1
 770.6 677.3 745.6 678.9 729.6 678.9 c 9
256.1 417.3 m 17
 256.1 384.5 305.1 382.9 348.1 382.9 c 1
 392.1 381.3 446.1 384.53 446.1 418.9 c 9
 446.1 646.101 l 17
 446.1 678.53 399.1 680.5 351.1 680.5 c 1
 303.1 678.899 256.1 676.53 256.1 646.1 c 9
 256.1 417.3 l 17
135.5 678.9 m 9
 135.5 719.7 l 25
 574.1 719.7 l 25
 574.1 682.1 l 17
 544.1 681.3 532.1 672.5 528.1 650.9 c 9
 528.1 412.5 l 17
 528.1 396.5 530.1 384.5 571.1 384.5 c 9
 571.1 343.7 l 25
 133.5 343.7 l 25
 133.5 382.9 l 17
 161.5 382.9 173.5 389.3 173.5 414.1 c 9
 173.5 654.1 l 17
 173.5 672.5 161.5 678.9 135.5 678.9 c 9
EndSplineSet
Validated: 33
EndChar

StartChar: p
Encoding: 112 112 41
Width: 1024
VWidth: 119
Flags: HMW
HStem: 0 0 40 0 460 0 500 0 720 0
VStem: 203.264 80 820.736 -80
LayerCount: 2
Fore
SplineSet
511.848 39.5771 m 0
 658.279 39.5771 739.6 141.599 739.6 344.02 c 0
 739.6 571.999 663.08 680.266 511.848 680.266 c 0
 373.48 680.266 285.6 573.999 285.6 358.922 c 0
 285.6 143.599 376.6 39.5771 511.848 39.5771 c 0
203.264 358.922 m 0
 203.264 573.999 328.08 719.738 511.695 719.738 c 0
 699.508 719.738 820.736 573.999 820.736 347.861 c 0
 820.736 143.599 699.283 0.261719 511.695 0.261719 c 0
 326.6 0.261719 203.264 140.398 203.264 358.922 c 0
EndSplineSet
Refer: 76 64 N 1 0 0 1 -7.6294e-05 -184 2
Refer: 76 64 N 1 0 0 1 -7.6294e-05 164 2
Validated: 1
EndChar

StartChar: q
Encoding: 113 113 42
Width: 1024
VWidth: 124
Flags: HMW
HStem: 0 0 40 0 460 0 500 0 720 0
VStem: 100.95 80 633.05 -80<43.0106 460.5 500.7 674.3> 803.05 80<43.3288 460.5 500.7 674.3>
LayerCount: 2
Fore
SplineSet
762.05 0.0996094 m 1
 762.05 40.0996 l 1
 785.05 40.0996 803.05 43.2998 803.05 79.2998 c 2
 803.05 460.5 l 1
 633.05 460.5 l 1
 633.05 77.7002 l 2
 633.05 52.9004 650.05 39.2998 676.05 39.2998 c 1
 676.05 -0.5 l 1
 510.95 0.0996094 l 1
 510.95 40.0996 l 1
 533.95 40.0996 551.95 43.2998 551.95 79.2998 c 2
 551.95 460.5 l 1
 467.95 460.5 l 1
 118.05 -64.6074 l 1
 118.05 459.5 l 1
 103.05 459.5 92.0498 452.5 92.0498 427.1 c 1
 53.0498 427.1 l 1
 53.0498 533.5 l 1
 94.5498 533.5 l 1
 94.5498 504.5 103.05 500.7 121.05 500.7 c 2
 551.95 500.7 l 1
 551.95 674.3 l 1
 470.95 674.3 l 2
 434.95 673.5 409.95 645.5 390.95 599.1 c 1
 352.95 613.5 l 1
 400.95 757.5 l 1
 439.95 751.1 l 1
 439.95 731.1 445.95 719.9 470.95 719.9 c 2
 905.95 719.9 l 2
 928.95 719.9 925.95 735.9 929.95 747.9 c 1
 970.95 747.9 l 1
 970.95 644.7 l 1
 927.95 644.7 l 1
 924.95 671.9 913.95 672.7 901.95 674.3 c 1
 883.95 674.3 l 1
 883.95 500.7 l 1
 895.95 500.7 l 1
 916.95 500.7 927.95 508.5 927.95 536.7 c 1
 970.95 536.7 l 1
 970.95 421.5 l 1
 927.95 421.5 l 1
 927.95 451 921.45 460.5 893.95 460.5 c 1
 883.95 460.5 l 1
 883.95 77.7002 l 2
 883.95 52.9004 900.95 39.2998 926.95 39.2998 c 1
 926.95 0.5 l 1
 762.05 0.0996094 l 1
161.6 155.393 m 1
 363.6 459.9 l 1
 202.6 459.9 l 2
 179.6 459.9 161.6 452.701 161.6 408.7 c 2
 161.6 155.393 l 1
633.05 674.3 m 5
 633.05 500.7 l 5
 803.05 500.7 l 1
 803.05 674.3 l 1
 633.05 674.3 l 5
EndSplineSet
Refer: 76 64 N 1 0 0 1 -137.55 -288 2
Refer: 76 64 N 1 0 0 1 -308.55 274 2
Validated: 1
EndChar

StartChar: r
Encoding: 114 114 43
Width: 1024
VWidth: 119
Flags: HMW
HStem: 0 0 40 0 460 0 500 0 720 0
VStem: 497.475 80
LayerCount: 2
Fore
SplineSet
134.075 678.4 m 1
 134.075 720 l 1
 890.925 720 l 1
 890.925 681.601 l 1
 603.976 681.601 l 2
 577.976 681.601 577.976 667.2 577.976 651.2 c 2
 577.976 382 l 1
 892.925 382 l 1
 892.925 342.8 l 1
 577.976 342.8 l 1
 577.976 76 l 2
 577.976 56 582.976 40.2002 603.976 40.2002 c 6
 890.925 40.2002 l 5
 890.925 0 l 1
 131.075 0 l 1
 131.075 40 l 1
 468.976 40 l 2
 489.976 40 496.976 49.5996 496.976 74.4004 c 2
 496.976 342.8 l 1
 133.075 342.8 l 1
 133.075 382 l 1
 496.976 382 l 1
 496.976 647.2 l 2
 496.976 673.6 487.976 678.4 467.976 678.4 c 2
 134.075 678.4 l 1
EndSplineSet
Validated: 1
EndChar

StartChar: t
Encoding: 116 116 45
Width: 1024
VWidth: 119
Flags: HMW
HStem: 0 0 40 0 460 0 500 0 720 0
VStem: 330 80
LayerCount: 2
Fore
SplineSet
103 680.5 m 1
 103 720.9 l 1
 448 720.9 l 1
 448 683.3 l 1
 423.6 683.3 410 671.126 410 645.7 c 1
 410 76.7002 l 2
 410 47.0996 425 39.9004 443 39.9004 c 1
 443 -0.900391 l 1
 99 -0.900391 l 1
 99 40.0996 l 1
 294 40.0996 l 2
 319 40.0996 329 53.5 329 73.5 c 2
 329 338.3 l 1
 186 338.3 l 2
 163 338.3 145 331.9 145 297.5 c 1
 101 297.1 l 1
 101 425.5 l 1
 147 425.5 l 1
 147 392.7 158 386.3 186 386.3 c 2
 329 386.3 l 1
 329 644.1 l 2
 329 680.1 314.997 680.655 292 680.3 c 2
 103 680.5 l 1
771 346.3 m 1
 789 346.3 797 335.1 797 319.1 c 2
 797 70.2998 l 2
 797 44.7002 780 39.7002 754 39.7002 c 1
 754 -0.5 l 1
 925 0.299805 l 1
 925 39.7002 l 1
 892 39.7002 881 44.7002 881 72.7002 c 2
 881 320.7 l 2
 881 338.3 896 345.5 925 345.5 c 1
 925 387.1 l 1
 514 387.1 l 1
 514 346.3 l 1
 541 346.3 l 1
 553 346.3 558 335.1 558 319.1 c 2
 558 70.2998 l 2
 558 44.7002 542 40.7002 516 40.7002 c 1
 516 -0.5 l 1
 682 0.299805 l 1
 682 40.7002 l 1
 649 40.7002 638 44.7002 638 72.7002 c 2
 638 320.7 l 2
 638 328.7 646 346.3 662 346.3 c 1
 686 346.3 752 346.3 771 346.3 c 1
EndSplineSet
Refer: 76 64 N 1 0 0 1 208 170 2
Validated: 41
EndChar

StartChar: u
Encoding: 117 117 46
Width: 1024
VWidth: 119
Flags: HMW
HStem: 0 0 40 0 460 0 500 0 720 0
VStem: 330.002 80 512 0 694.002 -80
LayerCount: 2
Fore
SplineSet
510.002 267.6 m 0
 583.6 267.6 613.6 310 613.6 360.4 c 0
 613.6 418 587.6 461.2 511.002 461.2 c 0
 439.6 461.2 407.6 414.209 407.6 362.8 c 0
 407.6 310 437.6 267.6 510.002 267.6 c 0
328.002 365.2 m 24
 328.647 455.291 415.603 502.2 514.002 502.2 c 0
 605.603 502.2 696.002 456 696.002 360.4 c 1
 696.002 266 609.6 224.2 512.002 224.2 c 1
 413.6 224.2 327.352 274.796 328.002 365.2 c 24
EndSplineSet
Refer: 76 64 N 1 0 0 1 -0.00166322 -292 2
Refer: 76 64 N 1 0 0 1 -0.00166322 274 2
Validated: 33
EndChar

StartChar: x
Encoding: 120 120 49
Width: 1024
VWidth: 115
Flags: HMW
HStem: 460.7 40<198.519 580.6 660 935.548>
VStem: 580.6 80<119 460.7 502.9 676.153>
LayerCount: 2
Fore
SplineSet
660 460.7 m 1
 659 -2.5 l 1
 44 502.9 l 1
 580.6 502.9 l 1
 580.6 651.7 l 2
 580.6 666.9 576.6 677.3 545.6 677.3 c 1
 545.6 720.5 l 1
 696 720.5 l 1
 696 682.9 l 1
 666 682.9 659 670.1 660 651.7 c 1
 660 502.9 l 1
 915 502.9 l 2
 931 502.9 936 508.5 936 529.3 c 1
 980 529.3 l 1
 980 434.3 l 1
 938 434.3 l 1
 938 456.7 932 460.7 912 460.7 c 2
 660 460.7 l 1
580.6 460.7 m 1
 229 460.7 l 2
 195 460.7 189.6 439.5 210 422.3 c 1
 580.6 119 l 1
 580.6 460.7 l 1
EndSplineSet
Refer: 76 64 N 1 0 0 1 322 -80 2
Validated: 33
EndChar

StartChar: y
Encoding: 121 121 50
Width: 1024
VWidth: 119
Flags: HMW
HStem: 0 0 40 0 460 0 500 0 680 0 720 0
VStem: 221 80 439.6 80 720 80
LayerCount: 2
Fore
SplineSet
299.6 499.993 m 1
 299.506 294.8 l 1
 299.506 274 313.506 265.2 331.506 265.2 c 1
 443.6 265.199 l 1
 466.6 265.199 469.6 280.868 469.6 296.068 c 1
 469.6 657.199 l 1
 469.6 685.199 447.6 680.399 427.6 680.399 c 1
 427.6 719.6 l 1
 837.6 719.6 l 1
 837.6 680.4 l 1
 823.6 680.4 801.6 678.8 801.6 654.8 c 1
 801.6 139.6 l 2
 801.6 83.5996 837 40.2002 906 40.2002 c 2
 979 40.2002 l 1
 979 0 l 1
 904 0 l 2
 761 0 720 58 720 142.8 c 2
 720 224.4 l 1
 45 224.4 l 1
 45 265.2 l 1
 196 265.2 l 1
 213 265.2 221 276.4 221 289.2 c 1
 221 460.4 l 1
 52 460.4 l 1
 52 499.8 l 1
 299.6 499.993 l 1
549.6 298 m 1
 549.6 274 560.6 265.2 582.6 265.2 c 1
 720 265.2 l 1
 720 653.2 l 1
 720 674.8 710 680.4 696 680.4 c 1
 572.6 680.4 l 1
 561.6 680.4 549.6 678 549.6 658.8 c 1
 549.6 298 l 1
EndSplineSet
Refer: 76 64 N 1 0 0 1 -320 275 2
Validated: 33
EndChar

StartChar: dollar
Encoding: 36 36 55
Width: 1024
VWidth: 107
Flags: HW
HStem: -0.299805 40.5996<178.305 238.479 352.994 720.542 778.964 845.505> 432.4 100.6<177.44 217.76> 459.6 40.601<218.632 451.905 570.944 803.971>
VStem: 177.44 40.32<432.4 459.051 500.425 533> 805.281 41.279<425.201 458.852 500.955 533>
LayerCount: 2
Fore
SplineSet
177.44 432.4 m 1xd8
 177.44 533 l 1
 217.76 533 l 1xd8
 217.76 501.801 228.096 500.201 244.738 500.201 c 2
 775.521 500.201 l 2xb8
 796.256 500.201 807.201 508.201 807.201 533 c 1
 846.56 533 l 1xd8
 846.56 425.201 l 1
 805.281 425.201 l 1
 805.281 446.801 799.137 459.6 776.734 459.6 c 2
 570.944 459.6 l 1
 764.866 78.2998 l 1
 780.897 50.167 808.066 40.5 845.505 40.5 c 1
 845.505 -0.299805 l 1
 178.305 -0.299805 l 1
 178.305 40.5 l 1
 211.905 40.5 235.617 51.667 250.305 73.5 c 1
 451.905 459.6 l 1
 244.641 459.6 l 2xb8
 227.777 459.6 217.76 452.4 217.76 432.4 c 1
 177.44 432.4 l 1xd8
531.6 438.35 m 1
 348.08 79.9004 l 2
 339.248 62.6494 349.855 40.2998 379.905 40.2998 c 2
 696.705 40.2998 l 2
 719.937 40.2998 727.617 56.167 713.697 83.0996 c 1
 531.6 438.35 l 1
EndSplineSet
Validated: 33
EndChar

StartChar: percent
Encoding: 37 37 56
Width: 1024
VWidth: 120
Flags: HMW
HStem: 0.400391 40<408.817 649.775> 680.2 40<411.952 653.25>
VStem: 129.75 80
LayerCount: 2
Fore
SplineSet
893.85 395.4 m 17
 879.501 395.4 863.5 395.8 845.85 395.8 c 1
 845.85 561.4 730 680.2 522 680.2 c 0
 356 680.2 212 536.4 212 360 c 1
 212 194.4 348 41.7998 510 41.7998 c 1
 692 41.7998 798.55 114.2 798.55 184.6 c 1
 783 184.6 758.55 218.4 758.55 250.2 c 0
 758.55 288.4 791.01 308.516 830.45 309.4 c 0
 875 310.4 892.05 276.4 892.05 235 c 0
 892.05 136.4 735.5 0.400391 512.2 0.400391 c 0
 305.4 0.400391 129.75 114.4 129.75 360.8 c 0
 129.75 608.4 302 721 522 721 c 0
 703.5 721 793.05 624.2 809.55 617.8 c 1
 827.15 601.8 845.85 591.4 843.65 629 c 9
 894.25 629 l 25
 893.85 395.4 l 17
EndSplineSet
Refer: 76 64 N 1 0 0 1 4.40001 0 2
Validated: 33
EndChar

StartChar: zero
Encoding: 48 48 67
Width: 512
VWidth: 119
Flags: HMW
HStem: 0 40<192.842 324.22> 350 0 680 40<192.557 323.124>
LayerCount: 2
Fore
SplineSet
256.19 39.5771 m 0
 356.109 39.5771 397 139.983 397 350.02 c 0
 397 561.983 357.312 680.266 256.19 680.266 c 0
 156.565 680.266 114 563.983 114 349.922 c 0
 114 137.983 155.71 39.5771 256.19 39.5771 c 0
34.0098 349.922 m 1
 34.0098 615.983 123.312 719.738 256.08 719.738 c 0
 391.306 719.738 477.99 613.983 477.99 349.861 c 0
 477.99 107.983 391.146 0.261719 256.08 0.261719 c 1
 125.71 0 34.0098 105.983 34.0098 349.922 c 1
EndSplineSet
Validated: 33
EndChar

StartChar: one
Encoding: 49 49 68
Width: 512
VWidth: 118
Flags: HW
HStem: 0 41<36.4395 68.8333 164.36 183.52> 680.301 39.8<326.438 340.584 435.365 475.561>
LayerCount: 2
Fore
SplineSet
306.8 680.302 m 9
 306.8 720.102 l 25
 452.8 720.102 l 25
 452.8 680.302 l 17
 427.839 680.302 416.8 671.526 405.76 649.102 c 8
 186.8 75.2002 l 16
 176.24 50.0264 187.038 41 202.16 41 c 9
 202.16 0 l 25
 60.7998 0 l 25
 60.7998 39.3994 l 17
 76.1611 39.3994 87.2002 46.5264 98.4814 72 c 8
 316.882 647.5 l 16
 325.522 666.525 325.042 680.302 306.8 680.302 c 9
EndSplineSet
Validated: 33
EndChar

StartChar: nine
Encoding: 57 57 69
Width: 512
VWidth: 119
Flags: HMW
HStem: -200 0 0.166992 39.835<19.2659 66.9601 168.259 193.577 385.564 405.495 454.853 492.799> 720 -40
VStem: 256 0
LayerCount: 2
Fore
SplineSet
170.789 71 m 9
 278.333 547 l 17
 277.536 547 400.562 95.5996 405.199 64.2275 c 0
 408.514 41.7998 406.896 40.002 385.562 40.002 c 1
 385.562 0.00390625 l 1
 492.801 0.00390625 l 1
 492.801 0.00390625 492.799 38.7021 492.799 39.502 c 1
 474.867 39.502 457.867 41.7666 451.6 70 c 0
 445.492 97.5205 287.576 680.674 257.576 780.674 c 9
 75.3887 74.2002 l 1
 62.5879 49 51.1992 40.002 19.1992 40.002 c 9
 19.2656 0.166992 l 25
 193.576 0.166992 l 17
 193.576 26.3301 193.576 -0.333008 193.576 39.667 c 1
 174.932 41.207 161.789 46 170.789 71 c 9
EndSplineSet
Refer: 76 64 N 1 0 0 1 -256 -490 2
Validated: 37
EndChar

StartChar: at
Encoding: 64 64 76
Width: 1024
VWidth: 120
Flags: HMW
HStem: 292.6 160<463.971 560.029> 447 160
VStem: 434.3 160<320.555 418.571>
LayerCount: 2
Fore
SplineSet
431.969 369.388 m 0xa0
 431.969 413.06 467.658 449.316 512 449.316 c 0x60
 556.342 449.316 592.031 413.06 592.031 369.388 c 0
 592.031 325.716 556.342 290.284 512 290.284 c 0
 467.658 290.284 431.969 325.716 431.969 369.388 c 0xa0
EndSplineSet
Validated: 1
EndChar

StartChar: two
Encoding: 50 50 216
Width: 512
VWidth: 118
Flags: HMW
HStem: 0 41<-34.1902 6.30113 78.9604 102.91> 460 40 680.301 39.7998<327.91 345.59 422.865 473.11>
LayerCount: 2
Fore
SplineSet
185.379 71.1406 m 0
 176.167 50.3516 185.621 43.7812 200.74 43.7812 c 9
 200.74 2.25879 l 25
 36.3789 2.25879 l 25
 36.3789 42.5 l 17
 51.7402 42.5 77.2581 50.0172 86.9805 68.5811 c 0
 296.8 548.25 l 0
 324.8 622.25 302.721 682.25 232.8 682.25 c 0
 178.8 682.25 145.753 613.878 180.8 538.25 c 0
 421.621 67.2891 l 0
 431.754 49.4566 460.26 41.208 475.621 41.208 c 9
 475.621 0.249023 l 25
 351.021 0.249023 l 25
 351.021 42.4893 l 17
 366.139 42.4893 376.939 49.71 366.379 69.8486 c 1
 146.8 498.25 l 0
 100.8 594.25 100.8 722.5 252.8 722.5 c 0
 406.8 722.5 410.8 596.25 368.8 500.25 c 0
 185.379 71.1406 l 0
EndSplineSet
Validated: 37
EndChar

StartChar: five
Encoding: 53 53 217
Width: 512
VWidth: 120
Flags: HMW
HStem: 0.400391 41.3994<194.09 343.187> 609 20G<454.99 485.35> 609 20G<454.99 485.35> 680.2 40.7998<200.904 340.75>
VStem: 26.65 80
LayerCount: 2
Fore
SplineSet
485.107 395.4 m 17xd8
 476.501 395.4 457.17 395.8 446.579 395.8 c 1
 446.579 532.4 397.6 680.2 272.8 680.2 c 0
 173.2 680.2 106.8 536.4 106.8 360 c 1
 106.8 194.4 168.397 41.7998 265.6 41.7998 c 1
 374.8 41.7998 424.8 114.2 424.8 184.6 c 1
 415.47 184.6 380.8 208.4 380.8 250.2 c 0
 380.8 286.4 406.8 304.4 434.8 304.4 c 0
 468.8 304.4 484.028 284.4 484.028 235 c 0
 484.028 140.4 400.897 0.400391 266.92 0.400391 c 0
 142.84 0.400391 26.6504 114.4 26.6504 360.8 c 0
 26.6504 608.4 140.8 721 272.8 721 c 0
 381.7 721 414.897 624.2 424.8 617.8 c 1
 435.357 601.8 446.579 591.4 445.26 629 c 9xb8
 485.35 629 l 25
 485.107 395.4 l 17xd8
EndSplineSet
Validated: 1
EndChar

StartChar: three
Encoding: 51 51 218
Width: 512
VWidth: 118
Flags: HMW
HStem: 460 40
VStem: 28.3505 80<301.081 436.633>
LayerCount: 2
Fore
SplineSet
436.9 276.323 m 1
 305.949 635.248 l 1
 297.312 654.273 295.51 680.299 313.75 680.299 c 9
 313.75 720.1 l 25
 186.352 720.1 l 25
 186.352 680.299 l 17
 222 680.299 243.65 656.527 256.852 633.248 c 1
 389.602 269.323 l 0
 397.102 251.323 394.299 239.49 374.9 239.49 c 0
 174.648 239.49 l 0
 154.648 239.49 109 274.49 109 349.398 c 0
 109 422.49 149.648 460.49 175.648 460.49 c 0
 201.648 460.49 225.613 447.165 235 422.49 c 0
 365 78.249 l 0
 377.279 43.4261 353.951 41 338.83 41 c 9
 338.83 0 l 25
 482 0 l 25
 482 39.3994 l 17
 449 39.3994 425.844 48.7109 413.35 81.4902 c 0
 279 428.49 l 0
 265.008 465.803 237.648 500.49 175.648 500.49 c 0
 93.6484 500.49 27.998 482.49 27.998 350.49 c 0
 27.998 230.49 78.6484 195.49 171.648 195.49 c 0
 480.199 197.489 l 9
 480.199 239.49 l 17
 465.102 239.49 453.699 243.323 436.9 276.323 c 1
EndSplineSet
Validated: 37
EndChar

StartChar: four
Encoding: 52 52 219
Width: 512
VWidth: 120
Flags: HMW
HStem: 0 41<280.15 309.663 348.976 381.401> 233.218 43.0307<64.4366 124.12 327.72 345.157 384.961 419.32> 458.249 41.999<63.7823 146.933> 680.299 39.8008<154.12 189.223 236.182 250.12>
VStem: 77.3 80 449.3 -80
LayerCount: 2
Fore
SplineSet
476 -0.490234 m 1
 476 42.6094 l 1
 458.84 42.6094 447.28 47 447.28 79.21 c 1
 447.28 762.2 l 1
 120.599 211.162 l 1
 120.599 638.9 l 1
 120.599 675 139.8 678.9 156 678.9 c 1
 156 720.701 l 1
 36 720.701 l 1
 36 680.5 l 1
 55.2002 680.5 76.5195 671 76.5195 631 c 2
 76.5195 -53.2891 l 1
 407 529.162 l 1
 407 82.4102 l 1
 407 43 381.041 42.8096 370 42.8096 c 1
 370 0 l 1
 370.241 0 476 -0.490234 476 -0.490234 c 1
EndSplineSet
Validated: 9
EndChar

StartChar: six
Encoding: 54 54 220
Width: 512
VWidth: 118
Flags: HW
HStem: 0 39.3994<53.0801 83.8783 180.866 200.16 350.56 369.853 425.521 456.319> 680.301 39.8<309.8 323.944 418.725 458.92>
LayerCount: 2
Fore
SplineSet
309.8 680.301 m 1
 309.8 720.101 l 1
 458.92 720.101 l 1
 458.92 680.301 l 1
 433.96 680.301 422.92 671.526 411.881 649.101 c 1
 299.547 365.201 l 1
 418.639 72 l 2
 429.919 46.5264 440.959 39.3994 456.319 39.3994 c 1
 456.319 0 l 1
 350.56 0 l 1
 350.56 41 l 1
 365.679 41 376.479 50.0264 365.92 75.2002 c 2
 275.36 304.072 l 1
 184.8 75.2002 l 2
 174.24 50.0264 185.041 41 200.16 41 c 1
 200.16 0 l 1
 53.0801 0 l 1
 53.0801 39.3994 l 1
 68.4404 39.3994 79.4805 46.5264 90.7607 72 c 1
 319.88 647.5 l 2
 328.52 666.525 328.04 680.301 309.8 680.301 c 1
EndSplineSet
Validated: 33
EndChar

StartChar: seven
Encoding: 55 55 221
Width: 512
VWidth: 118
Flags: HW
HStem: 0 41.1709<58.0645 90.457 186.253 202.951 357.4 373.455 431.79 464.184> 680.301 39.8<47.8164 88.0119 145.473 159.617 314.783 328.927 423.708 463.904>
LayerCount: 2
Fore
SplineSet
358.33 0 m 17
 464.184 0 l 9
 464.184 39.3994 l 17
 448.822 39.3994 437.783 46.5264 426.502 72 c 9
 149.537 647.5 l 17
 140.896 666.525 141.377 680.301 159.617 680.301 c 9
 159.617 720.101 l 25
 47.8164 720.101 l 25
 47.8164 680.301 l 17
 72.7773 680.301 83.8164 671.526 94.8555 649.101 c 9
 369.783 75.2002 l 17
 379.635 51.7148 370.895 42.2832 357.4 41.124 c 1
 356.432 41.04 204.076 41.0557 202.951 41.1709 c 1
 189.74 42.5176 180.054 52.0039 189.783 75.2002 c 9
 416.865 649.101 l 17
 427.904 671.526 438.941 680.301 463.904 680.301 c 9
 463.904 720.101 l 25
 314.783 720.101 l 25
 314.783 680.301 l 17
 333.021 680.301 333.504 666.525 324.863 647.5 c 9
 95.7441 72 l 17
 84.4648 46.5264 73.4238 39.3994 58.0645 39.3994 c 9
 58.0645 0 l 17
 203.201 0 l 1
 358.33 0 l 17
EndSplineSet
Validated: 37
EndChar

